<svg width="135" height="96" viewBox="0 0 135 96" fill="none" xmlns="http://www.w3.org/2000/svg">
<g id="Group 3">
<path id="Vector" d="M59.0625 95.8425C59.0625 95.8425 50.625 95.8425 50.625 87.8557C50.625 79.8688 59.0625 55.9081 92.8125 55.9081C126.562 55.9081 135 79.8688 135 87.8557C135 95.8425 126.562 95.8425 126.562 95.8425H59.0625ZM92.8125 47.9213C99.5258 47.9213 105.964 45.3968 110.711 40.9034C115.458 36.4099 118.125 30.3154 118.125 23.9606C118.125 17.6059 115.458 11.5114 110.711 7.01791C105.964 2.52442 99.5258 0 92.8125 0C86.0992 0 79.6609 2.52442 74.9139 7.01791C70.1668 11.5114 67.5 17.6059 67.5 23.9606C67.5 30.3154 70.1668 36.4099 74.9139 40.9034C79.6609 45.3968 86.0992 47.9213 92.8125 47.9213Z" fill="#333333"/>
<path id="Vector_2" fill-rule="evenodd" clip-rule="evenodd" d="M44.01 95.8425C42.7592 93.3491 42.1354 90.6154 42.1875 87.8556C42.1875 77.0334 47.925 65.8917 58.5225 58.1444C53.233 56.6016 47.7221 55.8472 42.1875 55.9081C8.4375 55.9081 0 79.8687 0 87.8556C0 95.8425 8.4375 95.8425 8.4375 95.8425H44.01Z" fill="#333333"/>
<path id="Vector_3" d="M37.9688 47.9213C43.5632 47.9213 48.9284 45.8176 52.8843 42.0731C56.8401 38.3285 59.0625 33.2498 59.0625 27.9541C59.0625 22.6585 56.8401 17.5798 52.8843 13.8352C48.9284 10.0906 43.5632 7.98694 37.9688 7.98694C32.3743 7.98694 27.0091 10.0906 23.0532 13.8352C19.0974 17.5798 16.875 22.6585 16.875 27.9541C16.875 33.2498 19.0974 38.3285 23.0532 42.0731C27.0091 45.8176 32.3743 47.9213 37.9688 47.9213Z" fill="#333333"/>
</g>
</svg>
